<mxfile host="Electron" agent="Mozilla/5.0 (X11; Linux x86_64) AppleWebKit/537.36 (KHTML, like Gecko) draw.io/26.2.2 Chrome/134.0.6998.178 Electron/35.1.2 Safari/537.36" version="26.2.2">
  <diagram name="Page-1" id="jn2h3PTJbIQgEI0y1kal">
    <mxGraphModel dx="1680" dy="2092" grid="1" gridSize="10" guides="1" tooltips="1" connect="1" arrows="1" fold="1" page="1" pageScale="1" pageWidth="850" pageHeight="1100" math="0" shadow="0">
      <root>
        <mxCell id="0" />
        <mxCell id="1" parent="0" />
        <mxCell id="rBF4yyr9d5BcuPXfIOt9-10" style="edgeStyle=orthogonalEdgeStyle;rounded=0;orthogonalLoop=1;jettySize=auto;html=1;" parent="1" edge="1">
          <mxGeometry relative="1" as="geometry">
            <mxPoint x="320" y="295" as="sourcePoint" />
            <mxPoint x="480" y="295" as="targetPoint" />
          </mxGeometry>
        </mxCell>
        <mxCell id="rBF4yyr9d5BcuPXfIOt9-16" value="L" style="edgeLabel;html=1;align=center;verticalAlign=middle;resizable=0;points=[];" parent="rBF4yyr9d5BcuPXfIOt9-10" vertex="1" connectable="0">
          <mxGeometry x="0.1958" y="1" relative="1" as="geometry">
            <mxPoint x="-16" as="offset" />
          </mxGeometry>
        </mxCell>
        <mxCell id="rBF4yyr9d5BcuPXfIOt9-53" style="edgeStyle=orthogonalEdgeStyle;rounded=0;orthogonalLoop=1;jettySize=auto;html=1;entryX=0.5;entryY=1;entryDx=0;entryDy=0;" parent="1" source="rBF4yyr9d5BcuPXfIOt9-2" target="rBF4yyr9d5BcuPXfIOt9-8" edge="1">
          <mxGeometry relative="1" as="geometry" />
        </mxCell>
        <mxCell id="rBF4yyr9d5BcuPXfIOt9-83" value="L/R" style="edgeLabel;html=1;align=center;verticalAlign=middle;resizable=0;points=[];" parent="rBF4yyr9d5BcuPXfIOt9-53" vertex="1" connectable="0">
          <mxGeometry x="-0.015" y="-1" relative="1" as="geometry">
            <mxPoint x="-1" as="offset" />
          </mxGeometry>
        </mxCell>
        <mxCell id="rBF4yyr9d5BcuPXfIOt9-93" style="edgeStyle=orthogonalEdgeStyle;rounded=0;orthogonalLoop=1;jettySize=auto;html=1;exitX=0;exitY=0.5;exitDx=0;exitDy=0;endArrow=none;startFill=1;startArrow=classic;fillColor=#e51400;strokeColor=#B20000;" parent="1" source="rBF4yyr9d5BcuPXfIOt9-2" edge="1">
          <mxGeometry relative="1" as="geometry">
            <mxPoint x="90" y="300" as="targetPoint" />
          </mxGeometry>
        </mxCell>
        <mxCell id="rBF4yyr9d5BcuPXfIOt9-96" value="+5V&lt;br&gt;(USB)" style="edgeLabel;html=1;align=center;verticalAlign=middle;resizable=0;points=[];" parent="rBF4yyr9d5BcuPXfIOt9-93" vertex="1" connectable="0">
          <mxGeometry x="0.078" relative="1" as="geometry">
            <mxPoint x="-53" as="offset" />
          </mxGeometry>
        </mxCell>
        <mxCell id="rBF4yyr9d5BcuPXfIOt9-95" style="edgeStyle=orthogonalEdgeStyle;rounded=0;orthogonalLoop=1;jettySize=auto;html=1;exitX=0.5;exitY=0;exitDx=0;exitDy=0;startArrow=classic;startFill=1;endArrow=none;fillColor=#e51400;strokeColor=#B20000;" parent="1" source="rBF4yyr9d5BcuPXfIOt9-3" edge="1">
          <mxGeometry relative="1" as="geometry">
            <mxPoint x="560" y="180" as="targetPoint" />
          </mxGeometry>
        </mxCell>
        <mxCell id="rBF4yyr9d5BcuPXfIOt9-98" value="+5V&lt;br&gt;(USB)" style="edgeLabel;html=1;align=center;verticalAlign=middle;resizable=0;points=[];" parent="rBF4yyr9d5BcuPXfIOt9-95" vertex="1" connectable="0">
          <mxGeometry x="-0.0092" y="-3" relative="1" as="geometry">
            <mxPoint x="-3" y="-48" as="offset" />
          </mxGeometry>
        </mxCell>
        <mxCell id="rBF4yyr9d5BcuPXfIOt9-3" value="&lt;b&gt;Wondom APM2 DSP&lt;/b&gt;" style="rounded=0;whiteSpace=wrap;html=1;verticalAlign=top;" parent="1" vertex="1">
          <mxGeometry x="480" y="240" width="160" height="130" as="geometry" />
        </mxCell>
        <mxCell id="rBF4yyr9d5BcuPXfIOt9-46" style="edgeStyle=orthogonalEdgeStyle;rounded=0;orthogonalLoop=1;jettySize=auto;html=1;entryX=0.5;entryY=0;entryDx=0;entryDy=0;" parent="1" source="rBF4yyr9d5BcuPXfIOt9-4" edge="1">
          <mxGeometry relative="1" as="geometry">
            <Array as="points">
              <mxPoint x="620" y="570" />
              <mxPoint x="620" y="570" />
            </Array>
            <mxPoint x="620" y="600" as="targetPoint" />
          </mxGeometry>
        </mxCell>
        <mxCell id="rBF4yyr9d5BcuPXfIOt9-47" style="edgeStyle=orthogonalEdgeStyle;rounded=0;orthogonalLoop=1;jettySize=auto;html=1;entryX=0.5;entryY=0;entryDx=0;entryDy=0;" parent="1" source="rBF4yyr9d5BcuPXfIOt9-4" edge="1">
          <mxGeometry relative="1" as="geometry">
            <Array as="points">
              <mxPoint x="700" y="570" />
              <mxPoint x="700" y="570" />
            </Array>
            <mxPoint x="700" y="600" as="targetPoint" />
          </mxGeometry>
        </mxCell>
        <mxCell id="rBF4yyr9d5BcuPXfIOt9-4" value="&lt;b&gt;Mid - High, High - High&lt;br&gt;Amp&lt;/b&gt;" style="rounded=0;whiteSpace=wrap;html=1;verticalAlign=top;" parent="1" vertex="1">
          <mxGeometry x="580" y="440" width="160" height="120" as="geometry" />
        </mxCell>
        <mxCell id="rBF4yyr9d5BcuPXfIOt9-43" style="edgeStyle=orthogonalEdgeStyle;rounded=0;orthogonalLoop=1;jettySize=auto;html=1;exitX=0.25;exitY=1;exitDx=0;exitDy=0;" parent="1" source="rBF4yyr9d5BcuPXfIOt9-5" target="rBF4yyr9d5BcuPXfIOt9-31" edge="1">
          <mxGeometry relative="1" as="geometry" />
        </mxCell>
        <mxCell id="rBF4yyr9d5BcuPXfIOt9-45" style="edgeStyle=orthogonalEdgeStyle;rounded=0;orthogonalLoop=1;jettySize=auto;html=1;exitX=0.75;exitY=1;exitDx=0;exitDy=0;" parent="1" source="rBF4yyr9d5BcuPXfIOt9-5" edge="1">
          <mxGeometry relative="1" as="geometry">
            <mxPoint x="500" y="600" as="targetPoint" />
          </mxGeometry>
        </mxCell>
        <mxCell id="rBF4yyr9d5BcuPXfIOt9-5" value="&lt;b&gt;Mid - Low, Low - Low&lt;br&gt;Amp&lt;/b&gt;" style="rounded=0;whiteSpace=wrap;html=1;verticalAlign=top;" parent="1" vertex="1">
          <mxGeometry x="380" y="440" width="160" height="120" as="geometry" />
        </mxCell>
        <mxCell id="rBF4yyr9d5BcuPXfIOt9-77" style="edgeStyle=orthogonalEdgeStyle;rounded=0;orthogonalLoop=1;jettySize=auto;html=1;exitX=0.25;exitY=0;exitDx=0;exitDy=0;" parent="1" source="rBF4yyr9d5BcuPXfIOt9-8" target="rBF4yyr9d5BcuPXfIOt9-64" edge="1">
          <mxGeometry relative="1" as="geometry">
            <Array as="points">
              <mxPoint x="200" y="100" />
              <mxPoint x="140" y="100" />
            </Array>
          </mxGeometry>
        </mxCell>
        <mxCell id="rBF4yyr9d5BcuPXfIOt9-78" style="edgeStyle=orthogonalEdgeStyle;rounded=0;orthogonalLoop=1;jettySize=auto;html=1;" parent="1" source="rBF4yyr9d5BcuPXfIOt9-8" target="rBF4yyr9d5BcuPXfIOt9-67" edge="1">
          <mxGeometry relative="1" as="geometry" />
        </mxCell>
        <mxCell id="rBF4yyr9d5BcuPXfIOt9-79" style="edgeStyle=orthogonalEdgeStyle;rounded=0;orthogonalLoop=1;jettySize=auto;html=1;exitX=0.75;exitY=0;exitDx=0;exitDy=0;" parent="1" source="rBF4yyr9d5BcuPXfIOt9-8" target="rBF4yyr9d5BcuPXfIOt9-70" edge="1">
          <mxGeometry relative="1" as="geometry">
            <Array as="points">
              <mxPoint x="280" y="100" />
              <mxPoint x="340" y="100" />
            </Array>
          </mxGeometry>
        </mxCell>
        <mxCell id="rBF4yyr9d5BcuPXfIOt9-8" value="&lt;b&gt;Lamp Driver&lt;/b&gt;" style="rounded=0;whiteSpace=wrap;html=1;verticalAlign=top;" parent="1" vertex="1">
          <mxGeometry x="160" y="120" width="160" height="70" as="geometry" />
        </mxCell>
        <mxCell id="rBF4yyr9d5BcuPXfIOt9-13" value="ADC" style="rounded=0;whiteSpace=wrap;html=1;" parent="1" vertex="1">
          <mxGeometry x="480" y="285" width="40" height="40" as="geometry" />
        </mxCell>
        <mxCell id="rBF4yyr9d5BcuPXfIOt9-18" style="edgeStyle=orthogonalEdgeStyle;rounded=0;orthogonalLoop=1;jettySize=auto;html=1;" parent="1" source="rBF4yyr9d5BcuPXfIOt9-14" target="rBF4yyr9d5BcuPXfIOt9-5" edge="1">
          <mxGeometry relative="1" as="geometry">
            <Array as="points">
              <mxPoint x="540" y="390" />
              <mxPoint x="450" y="390" />
            </Array>
          </mxGeometry>
        </mxCell>
        <mxCell id="rBF4yyr9d5BcuPXfIOt9-23" value="Mid - Low" style="edgeLabel;html=1;align=center;verticalAlign=middle;resizable=0;points=[];" parent="rBF4yyr9d5BcuPXfIOt9-18" vertex="1" connectable="0">
          <mxGeometry x="-0.1488" y="-1" relative="1" as="geometry">
            <mxPoint x="12" as="offset" />
          </mxGeometry>
        </mxCell>
        <mxCell id="rBF4yyr9d5BcuPXfIOt9-21" style="edgeStyle=orthogonalEdgeStyle;rounded=0;orthogonalLoop=1;jettySize=auto;html=1;" parent="1" source="rBF4yyr9d5BcuPXfIOt9-14" target="rBF4yyr9d5BcuPXfIOt9-4" edge="1">
          <mxGeometry relative="1" as="geometry">
            <Array as="points">
              <mxPoint x="580" y="390" />
              <mxPoint x="670" y="390" />
            </Array>
          </mxGeometry>
        </mxCell>
        <mxCell id="rBF4yyr9d5BcuPXfIOt9-26" value="Mid - High" style="edgeLabel;html=1;align=center;verticalAlign=middle;resizable=0;points=[];" parent="rBF4yyr9d5BcuPXfIOt9-21" vertex="1" connectable="0">
          <mxGeometry x="-0.2381" relative="1" as="geometry">
            <mxPoint x="-5" as="offset" />
          </mxGeometry>
        </mxCell>
        <mxCell id="rBF4yyr9d5BcuPXfIOt9-14" value="DAC" style="rounded=0;whiteSpace=wrap;html=1;" parent="1" vertex="1">
          <mxGeometry x="530" y="340" width="60" height="30" as="geometry" />
        </mxCell>
        <mxCell id="rBF4yyr9d5BcuPXfIOt9-15" style="edgeStyle=orthogonalEdgeStyle;rounded=0;orthogonalLoop=1;jettySize=auto;html=1;" parent="1" edge="1">
          <mxGeometry relative="1" as="geometry">
            <mxPoint x="320" y="315" as="sourcePoint" />
            <mxPoint x="480" y="315" as="targetPoint" />
          </mxGeometry>
        </mxCell>
        <mxCell id="rBF4yyr9d5BcuPXfIOt9-17" value="R" style="edgeLabel;html=1;align=center;verticalAlign=middle;resizable=0;points=[];" parent="rBF4yyr9d5BcuPXfIOt9-15" vertex="1" connectable="0">
          <mxGeometry x="0.2625" relative="1" as="geometry">
            <mxPoint x="-21" as="offset" />
          </mxGeometry>
        </mxCell>
        <mxCell id="rBF4yyr9d5BcuPXfIOt9-19" style="edgeStyle=orthogonalEdgeStyle;rounded=0;orthogonalLoop=1;jettySize=auto;html=1;exitX=0.5;exitY=1;exitDx=0;exitDy=0;" parent="1" source="rBF4yyr9d5BcuPXfIOt9-14" edge="1">
          <mxGeometry relative="1" as="geometry">
            <mxPoint x="540" y="360" as="sourcePoint" />
            <mxPoint x="470" y="440" as="targetPoint" />
            <Array as="points">
              <mxPoint x="550" y="370" />
              <mxPoint x="550" y="410" />
              <mxPoint x="470" y="410" />
            </Array>
          </mxGeometry>
        </mxCell>
        <mxCell id="rBF4yyr9d5BcuPXfIOt9-25" value="Low - Low" style="edgeLabel;html=1;align=center;verticalAlign=middle;resizable=0;points=[];" parent="rBF4yyr9d5BcuPXfIOt9-19" vertex="1" connectable="0">
          <mxGeometry x="-0.0532" y="-1" relative="1" as="geometry">
            <mxPoint x="-20" as="offset" />
          </mxGeometry>
        </mxCell>
        <mxCell id="rBF4yyr9d5BcuPXfIOt9-22" style="edgeStyle=orthogonalEdgeStyle;rounded=0;orthogonalLoop=1;jettySize=auto;html=1;" parent="1" source="rBF4yyr9d5BcuPXfIOt9-14" edge="1">
          <mxGeometry relative="1" as="geometry">
            <mxPoint x="580" y="360" as="sourcePoint" />
            <mxPoint x="650" y="440" as="targetPoint" />
            <Array as="points">
              <mxPoint x="570" y="410" />
              <mxPoint x="650" y="410" />
            </Array>
          </mxGeometry>
        </mxCell>
        <mxCell id="rBF4yyr9d5BcuPXfIOt9-27" value="High - High" style="edgeLabel;html=1;align=center;verticalAlign=middle;resizable=0;points=[];" parent="rBF4yyr9d5BcuPXfIOt9-22" vertex="1" connectable="0">
          <mxGeometry x="0.0756" y="1" relative="1" as="geometry">
            <mxPoint x="4" as="offset" />
          </mxGeometry>
        </mxCell>
        <mxCell id="rBF4yyr9d5BcuPXfIOt9-49" style="edgeStyle=orthogonalEdgeStyle;rounded=0;orthogonalLoop=1;jettySize=auto;html=1;" parent="1" source="rBF4yyr9d5BcuPXfIOt9-48" target="rBF4yyr9d5BcuPXfIOt9-3" edge="1">
          <mxGeometry relative="1" as="geometry">
            <Array as="points">
              <mxPoint x="760" y="305" />
              <mxPoint x="760" y="305" />
            </Array>
          </mxGeometry>
        </mxCell>
        <mxCell id="rBF4yyr9d5BcuPXfIOt9-89" value="&amp;nbsp;-&amp;nbsp;" style="edgeLabel;html=1;align=center;verticalAlign=middle;resizable=0;points=[];" parent="rBF4yyr9d5BcuPXfIOt9-49" vertex="1" connectable="0">
          <mxGeometry x="-0.1139" relative="1" as="geometry">
            <mxPoint x="-5" y="-2" as="offset" />
          </mxGeometry>
        </mxCell>
        <mxCell id="rBF4yyr9d5BcuPXfIOt9-51" value="GPIOs" style="rounded=0;whiteSpace=wrap;html=1;" parent="1" vertex="1">
          <mxGeometry x="590" y="280" width="50" height="50" as="geometry" />
        </mxCell>
        <mxCell id="rBF4yyr9d5BcuPXfIOt9-80" style="edgeStyle=orthogonalEdgeStyle;rounded=0;orthogonalLoop=1;jettySize=auto;html=1;movable=1;resizable=1;rotatable=1;deletable=1;editable=1;locked=0;connectable=1;" parent="1" source="rBF4yyr9d5BcuPXfIOt9-55" target="rBF4yyr9d5BcuPXfIOt9-8" edge="1">
          <mxGeometry relative="1" as="geometry">
            <Array as="points">
              <mxPoint x="260" y="210" />
              <mxPoint x="260" y="210" />
            </Array>
          </mxGeometry>
        </mxCell>
        <mxCell id="rBF4yyr9d5BcuPXfIOt9-82" value="Top" style="edgeLabel;html=1;align=center;verticalAlign=middle;resizable=0;points=[];" parent="rBF4yyr9d5BcuPXfIOt9-80" vertex="1" connectable="0">
          <mxGeometry x="-0.2357" y="-2" relative="1" as="geometry">
            <mxPoint x="-55" y="-6" as="offset" />
          </mxGeometry>
        </mxCell>
        <mxCell id="rBF4yyr9d5BcuPXfIOt9-81" style="edgeStyle=orthogonalEdgeStyle;rounded=0;orthogonalLoop=1;jettySize=auto;html=1;movable=1;resizable=1;rotatable=1;deletable=1;editable=1;locked=0;connectable=1;" parent="1" source="rBF4yyr9d5BcuPXfIOt9-55" target="rBF4yyr9d5BcuPXfIOt9-8" edge="1">
          <mxGeometry relative="1" as="geometry">
            <Array as="points">
              <mxPoint x="220" y="210" />
              <mxPoint x="220" y="210" />
            </Array>
          </mxGeometry>
        </mxCell>
        <mxCell id="rBF4yyr9d5BcuPXfIOt9-84" value="Bottom" style="edgeLabel;html=1;align=center;verticalAlign=middle;resizable=0;points=[];" parent="rBF4yyr9d5BcuPXfIOt9-81" vertex="1" connectable="0">
          <mxGeometry x="-0.035" y="-2" relative="1" as="geometry">
            <mxPoint x="58" y="-1" as="offset" />
          </mxGeometry>
        </mxCell>
        <mxCell id="rBF4yyr9d5BcuPXfIOt9-63" value="" style="group" parent="1" vertex="1" connectable="0">
          <mxGeometry x="800" y="195" width="100" height="210" as="geometry" />
        </mxCell>
        <mxCell id="rBF4yyr9d5BcuPXfIOt9-48" value="&lt;b&gt;Volume Buttons&lt;/b&gt;" style="rounded=0;whiteSpace=wrap;html=1;verticalAlign=top;movable=1;resizable=1;rotatable=1;deletable=1;editable=1;locked=0;connectable=1;container=0;" parent="rBF4yyr9d5BcuPXfIOt9-63" vertex="1">
          <mxGeometry width="100" height="210" as="geometry" />
        </mxCell>
        <mxCell id="rBF4yyr9d5BcuPXfIOt9-58" value="&lt;b&gt;&lt;font style=&quot;font-size: 20px;&quot;&gt;+&lt;/font&gt;&lt;/b&gt;" style="ellipse;whiteSpace=wrap;html=1;aspect=fixed;fillColor=#60a917;strokeColor=#2D7600;fontColor=#ffffff;movable=1;resizable=1;rotatable=1;deletable=1;editable=1;locked=0;connectable=1;container=0;" parent="rBF4yyr9d5BcuPXfIOt9-63" vertex="1">
          <mxGeometry x="30" y="50" width="40" height="40" as="geometry" />
        </mxCell>
        <mxCell id="rBF4yyr9d5BcuPXfIOt9-59" value="&lt;font style=&quot;font-size: 20px;&quot;&gt;&lt;b&gt;-&lt;/b&gt;&lt;/font&gt;" style="ellipse;whiteSpace=wrap;html=1;aspect=fixed;movable=1;resizable=1;rotatable=1;deletable=1;editable=1;locked=0;connectable=1;container=0;" parent="rBF4yyr9d5BcuPXfIOt9-63" vertex="1">
          <mxGeometry x="30" y="100" width="40" height="40" as="geometry" />
        </mxCell>
        <mxCell id="rBF4yyr9d5BcuPXfIOt9-60" value="clear" style="ellipse;whiteSpace=wrap;html=1;aspect=fixed;fillColor=#e51400;fontColor=#ffffff;strokeColor=#B20000;movable=1;resizable=1;rotatable=1;deletable=1;editable=1;locked=0;connectable=1;container=0;" parent="rBF4yyr9d5BcuPXfIOt9-63" vertex="1">
          <mxGeometry x="30" y="150" width="40" height="40" as="geometry" />
        </mxCell>
        <mxCell id="rBF4yyr9d5BcuPXfIOt9-86" style="edgeStyle=orthogonalEdgeStyle;rounded=0;orthogonalLoop=1;jettySize=auto;html=1;exitX=0;exitY=0.25;exitDx=0;exitDy=0;" parent="1" source="rBF4yyr9d5BcuPXfIOt9-48" target="rBF4yyr9d5BcuPXfIOt9-51" edge="1">
          <mxGeometry relative="1" as="geometry">
            <Array as="points">
              <mxPoint x="800" y="290" />
            </Array>
          </mxGeometry>
        </mxCell>
        <mxCell id="rBF4yyr9d5BcuPXfIOt9-88" value="+" style="edgeLabel;html=1;align=center;verticalAlign=middle;resizable=0;points=[];" parent="rBF4yyr9d5BcuPXfIOt9-86" vertex="1" connectable="0">
          <mxGeometry x="0.176" relative="1" as="geometry">
            <mxPoint as="offset" />
          </mxGeometry>
        </mxCell>
        <mxCell id="rBF4yyr9d5BcuPXfIOt9-87" style="edgeStyle=orthogonalEdgeStyle;rounded=0;orthogonalLoop=1;jettySize=auto;html=1;exitX=0;exitY=0.75;exitDx=0;exitDy=0;" parent="1" source="rBF4yyr9d5BcuPXfIOt9-48" target="rBF4yyr9d5BcuPXfIOt9-51" edge="1">
          <mxGeometry relative="1" as="geometry">
            <Array as="points">
              <mxPoint x="800" y="320" />
            </Array>
          </mxGeometry>
        </mxCell>
        <mxCell id="rBF4yyr9d5BcuPXfIOt9-90" value="&lt;font style=&quot;font-size: 8px;&quot;&gt;clear (unused)&lt;/font&gt;" style="edgeLabel;html=1;align=center;verticalAlign=middle;resizable=0;points=[];" parent="rBF4yyr9d5BcuPXfIOt9-87" vertex="1" connectable="0">
          <mxGeometry x="0.161" y="1" relative="1" as="geometry">
            <mxPoint as="offset" />
          </mxGeometry>
        </mxCell>
        <mxCell id="rBF4yyr9d5BcuPXfIOt9-101" style="edgeStyle=orthogonalEdgeStyle;rounded=0;orthogonalLoop=1;jettySize=auto;html=1;exitX=0;exitY=0.5;exitDx=0;exitDy=0;endArrow=none;startFill=1;startArrow=classic;fillColor=#e51400;strokeColor=#B20000;" parent="1" edge="1">
          <mxGeometry relative="1" as="geometry">
            <mxPoint x="310" y="500" as="targetPoint" />
            <mxPoint x="380" y="500" as="sourcePoint" />
          </mxGeometry>
        </mxCell>
        <mxCell id="rBF4yyr9d5BcuPXfIOt9-102" value="+12V&lt;br&gt;(Audio)" style="edgeLabel;html=1;align=center;verticalAlign=middle;resizable=0;points=[];" parent="rBF4yyr9d5BcuPXfIOt9-101" vertex="1" connectable="0">
          <mxGeometry x="0.078" relative="1" as="geometry">
            <mxPoint x="-53" as="offset" />
          </mxGeometry>
        </mxCell>
        <mxCell id="rBF4yyr9d5BcuPXfIOt9-103" style="edgeStyle=orthogonalEdgeStyle;rounded=0;orthogonalLoop=1;jettySize=auto;html=1;exitX=0;exitY=0.5;exitDx=0;exitDy=0;endArrow=none;startFill=1;startArrow=classic;fillColor=#e51400;strokeColor=#B20000;" parent="1" source="rBF4yyr9d5BcuPXfIOt9-8" edge="1">
          <mxGeometry relative="1" as="geometry">
            <mxPoint x="100" y="155" as="targetPoint" />
            <mxPoint x="170" y="174.66" as="sourcePoint" />
          </mxGeometry>
        </mxCell>
        <mxCell id="rBF4yyr9d5BcuPXfIOt9-104" value="+12V&lt;br&gt;(Lights)" style="edgeLabel;html=1;align=center;verticalAlign=middle;resizable=0;points=[];" parent="rBF4yyr9d5BcuPXfIOt9-103" vertex="1" connectable="0">
          <mxGeometry x="0.078" relative="1" as="geometry">
            <mxPoint x="-53" as="offset" />
          </mxGeometry>
        </mxCell>
        <mxCell id="rBF4yyr9d5BcuPXfIOt9-105" style="edgeStyle=orthogonalEdgeStyle;rounded=0;orthogonalLoop=1;jettySize=auto;html=1;exitX=0;exitY=0.5;exitDx=0;exitDy=0;endArrow=classic;startFill=0;startArrow=none;fillColor=#e51400;strokeColor=#B20000;endFill=1;" parent="1" edge="1">
          <mxGeometry relative="1" as="geometry">
            <mxPoint x="740" y="499.8" as="targetPoint" />
            <mxPoint x="810" y="499.8" as="sourcePoint" />
          </mxGeometry>
        </mxCell>
        <mxCell id="rBF4yyr9d5BcuPXfIOt9-107" value="+12V&lt;br&gt;(Audio)" style="edgeLabel;html=1;align=center;verticalAlign=middle;resizable=0;points=[];" parent="rBF4yyr9d5BcuPXfIOt9-105" vertex="1" connectable="0">
          <mxGeometry x="-0.9714" relative="1" as="geometry">
            <mxPoint x="21" as="offset" />
          </mxGeometry>
        </mxCell>
        <mxCell id="rBF4yyr9d5BcuPXfIOt9-110" value="" style="shape=image;verticalLabelPosition=bottom;labelBackgroundColor=default;verticalAlign=top;aspect=fixed;imageAspect=0;image=https://static.thenounproject.com/png/658519-200.png;" parent="1" vertex="1">
          <mxGeometry x="540" y="280" width="40" height="40" as="geometry" />
        </mxCell>
        <mxCell id="rBF4yyr9d5BcuPXfIOt9-2" value="&lt;b&gt;Raspberry &lt;br&gt;Pi&lt;/b&gt;" style="rounded=0;whiteSpace=wrap;html=1;verticalAlign=bottom;" parent="1" vertex="1">
          <mxGeometry x="160" y="230" width="160" height="140" as="geometry" />
        </mxCell>
        <mxCell id="rBF4yyr9d5BcuPXfIOt9-54" value="AUX" style="rounded=0;whiteSpace=wrap;html=1;" parent="1" vertex="1">
          <mxGeometry x="280" y="285" width="40" height="40" as="geometry" />
        </mxCell>
        <mxCell id="rBF4yyr9d5BcuPXfIOt9-55" value="GPIOs" style="rounded=0;whiteSpace=wrap;html=1;" parent="1" vertex="1">
          <mxGeometry x="200" y="230" width="120" height="50" as="geometry" />
        </mxCell>
        <mxCell id="rBF4yyr9d5BcuPXfIOt9-108" value="" style="shape=image;verticalLabelPosition=bottom;labelBackgroundColor=default;verticalAlign=top;aspect=fixed;imageAspect=0;image=https://upload.wikimedia.org/wikipedia/de/thumb/c/cb/Raspberry_Pi_Logo.svg/570px-Raspberry_Pi_Logo.svg.png;" parent="1" vertex="1">
          <mxGeometry x="224.17" y="289" width="31.67" height="40" as="geometry" />
        </mxCell>
        <mxCell id="rBF4yyr9d5BcuPXfIOt9-119" value="" style="group" parent="1" vertex="1" connectable="0">
          <mxGeometry x="418.19999999999993" y="480" width="83.60000000000014" height="60" as="geometry" />
        </mxCell>
        <mxCell id="rBF4yyr9d5BcuPXfIOt9-117" style="edgeStyle=orthogonalEdgeStyle;rounded=0;orthogonalLoop=1;jettySize=auto;html=1;exitX=0;exitY=0.5;exitDx=0;exitDy=0;exitPerimeter=0;endArrow=none;startFill=0;" parent="rBF4yyr9d5BcuPXfIOt9-119" source="rBF4yyr9d5BcuPXfIOt9-116" edge="1">
          <mxGeometry relative="1" as="geometry">
            <mxPoint y="29.799999999999955" as="targetPoint" />
          </mxGeometry>
        </mxCell>
        <mxCell id="rBF4yyr9d5BcuPXfIOt9-118" style="edgeStyle=orthogonalEdgeStyle;rounded=0;orthogonalLoop=1;jettySize=auto;html=1;exitX=1;exitY=0.5;exitDx=0;exitDy=0;exitPerimeter=0;endArrow=none;startFill=0;" parent="rBF4yyr9d5BcuPXfIOt9-119" source="rBF4yyr9d5BcuPXfIOt9-116" edge="1">
          <mxGeometry relative="1" as="geometry">
            <mxPoint x="83.60000000000014" y="30.200000000000045" as="targetPoint" />
          </mxGeometry>
        </mxCell>
        <mxCell id="rBF4yyr9d5BcuPXfIOt9-116" value="" style="verticalLabelPosition=bottom;shadow=0;dashed=0;align=center;html=1;verticalAlign=top;shape=mxgraph.electrical.abstract.amplifier;" parent="rBF4yyr9d5BcuPXfIOt9-119" vertex="1">
          <mxGeometry x="17.200000000000045" width="54" height="60" as="geometry" />
        </mxCell>
        <mxCell id="rBF4yyr9d5BcuPXfIOt9-121" value="" style="group" parent="1" vertex="1" connectable="0">
          <mxGeometry x="618.2" y="480" width="83.60000000000014" height="60" as="geometry" />
        </mxCell>
        <mxCell id="rBF4yyr9d5BcuPXfIOt9-122" style="edgeStyle=orthogonalEdgeStyle;rounded=0;orthogonalLoop=1;jettySize=auto;html=1;exitX=0;exitY=0.5;exitDx=0;exitDy=0;exitPerimeter=0;endArrow=none;startFill=0;" parent="rBF4yyr9d5BcuPXfIOt9-121" source="rBF4yyr9d5BcuPXfIOt9-124" edge="1">
          <mxGeometry relative="1" as="geometry">
            <mxPoint y="29.799999999999955" as="targetPoint" />
          </mxGeometry>
        </mxCell>
        <mxCell id="rBF4yyr9d5BcuPXfIOt9-123" style="edgeStyle=orthogonalEdgeStyle;rounded=0;orthogonalLoop=1;jettySize=auto;html=1;exitX=1;exitY=0.5;exitDx=0;exitDy=0;exitPerimeter=0;endArrow=none;startFill=0;" parent="rBF4yyr9d5BcuPXfIOt9-121" source="rBF4yyr9d5BcuPXfIOt9-124" edge="1">
          <mxGeometry relative="1" as="geometry">
            <mxPoint x="83.60000000000014" y="30.200000000000045" as="targetPoint" />
          </mxGeometry>
        </mxCell>
        <mxCell id="rBF4yyr9d5BcuPXfIOt9-124" value="" style="verticalLabelPosition=bottom;shadow=0;dashed=0;align=center;html=1;verticalAlign=top;shape=mxgraph.electrical.abstract.amplifier;" parent="rBF4yyr9d5BcuPXfIOt9-121" vertex="1">
          <mxGeometry x="17.200000000000045" width="54" height="60" as="geometry" />
        </mxCell>
        <mxCell id="rBF4yyr9d5BcuPXfIOt9-137" style="edgeStyle=none;rounded=0;orthogonalLoop=1;jettySize=auto;html=1;endArrow=none;startFill=0;" parent="1" edge="1">
          <mxGeometry relative="1" as="geometry">
            <mxPoint x="480" y="5" as="targetPoint" />
            <mxPoint x="520" y="11" as="sourcePoint" />
            <Array as="points">
              <mxPoint x="480" y="11" />
            </Array>
          </mxGeometry>
        </mxCell>
        <mxCell id="rBF4yyr9d5BcuPXfIOt9-133" style="edgeStyle=orthogonalEdgeStyle;rounded=0;orthogonalLoop=1;jettySize=auto;html=1;endArrow=none;startFill=0;" parent="1" edge="1">
          <mxGeometry relative="1" as="geometry">
            <mxPoint x="480" y="-5" as="targetPoint" />
            <mxPoint x="520" y="-10" as="sourcePoint" />
            <Array as="points">
              <mxPoint x="480.01000000000005" y="-10" />
            </Array>
          </mxGeometry>
        </mxCell>
        <mxCell id="rBF4yyr9d5BcuPXfIOt9-134" style="edgeStyle=orthogonalEdgeStyle;rounded=0;orthogonalLoop=1;jettySize=auto;html=1;endArrow=none;startFill=0;" parent="1" edge="1">
          <mxGeometry relative="1" as="geometry">
            <mxPoint x="470" y="-5" as="targetPoint" />
            <mxPoint x="520" y="-20" as="sourcePoint" />
            <Array as="points">
              <mxPoint x="470" y="-20" />
            </Array>
          </mxGeometry>
        </mxCell>
        <mxCell id="rBF4yyr9d5BcuPXfIOt9-135" style="edgeStyle=orthogonalEdgeStyle;rounded=0;orthogonalLoop=1;jettySize=auto;html=1;endArrow=none;startFill=0;" parent="1" edge="1">
          <mxGeometry relative="1" as="geometry">
            <mxPoint x="470" y="10" as="targetPoint" />
            <mxPoint x="520" y="21" as="sourcePoint" />
            <Array as="points">
              <mxPoint x="470" y="21" />
            </Array>
          </mxGeometry>
        </mxCell>
        <mxCell id="rBF4yyr9d5BcuPXfIOt9-141" value="" style="edgeStyle=orthogonalEdgeStyle;rounded=0;orthogonalLoop=1;jettySize=auto;html=1;" parent="1" target="rBF4yyr9d5BcuPXfIOt9-140" edge="1">
          <mxGeometry relative="1" as="geometry">
            <mxPoint x="520" as="sourcePoint" />
            <mxPoint x="320" y="255" as="targetPoint" />
          </mxGeometry>
        </mxCell>
        <mxCell id="rBF4yyr9d5BcuPXfIOt9-159" style="edgeStyle=orthogonalEdgeStyle;rounded=0;orthogonalLoop=1;jettySize=auto;html=1;endArrow=classicThin;endFill=1;" parent="1" source="rBF4yyr9d5BcuPXfIOt9-140" target="rBF4yyr9d5BcuPXfIOt9-55" edge="1">
          <mxGeometry relative="1" as="geometry">
            <Array as="points">
              <mxPoint x="420" y="240" />
            </Array>
          </mxGeometry>
        </mxCell>
        <mxCell id="rBF4yyr9d5BcuPXfIOt9-160" style="edgeStyle=orthogonalEdgeStyle;rounded=0;orthogonalLoop=1;jettySize=auto;html=1;endArrow=classicThin;endFill=1;" parent="1" source="rBF4yyr9d5BcuPXfIOt9-140" target="rBF4yyr9d5BcuPXfIOt9-55" edge="1">
          <mxGeometry relative="1" as="geometry">
            <Array as="points">
              <mxPoint x="430" y="250" />
            </Array>
          </mxGeometry>
        </mxCell>
        <mxCell id="rBF4yyr9d5BcuPXfIOt9-161" style="edgeStyle=orthogonalEdgeStyle;rounded=0;orthogonalLoop=1;jettySize=auto;html=1;endArrow=classicThin;endFill=1;" parent="1" source="rBF4yyr9d5BcuPXfIOt9-140" target="rBF4yyr9d5BcuPXfIOt9-55" edge="1">
          <mxGeometry relative="1" as="geometry">
            <Array as="points">
              <mxPoint x="440" y="260" />
            </Array>
          </mxGeometry>
        </mxCell>
        <mxCell id="rBF4yyr9d5BcuPXfIOt9-162" style="edgeStyle=orthogonalEdgeStyle;rounded=0;orthogonalLoop=1;jettySize=auto;html=1;endArrow=classicThin;endFill=1;" parent="1" source="rBF4yyr9d5BcuPXfIOt9-140" target="rBF4yyr9d5BcuPXfIOt9-55" edge="1">
          <mxGeometry relative="1" as="geometry">
            <Array as="points">
              <mxPoint x="450" y="270" />
            </Array>
          </mxGeometry>
        </mxCell>
        <mxCell id="rBF4yyr9d5BcuPXfIOt9-140" value="&lt;b&gt;Keypad Decoder&lt;/b&gt;" style="rounded=0;whiteSpace=wrap;html=1;verticalAlign=top;" parent="1" vertex="1">
          <mxGeometry x="400" y="113" width="70" height="100" as="geometry" />
        </mxCell>
        <mxCell id="rBF4yyr9d5BcuPXfIOt9-163" value="" style="pointerEvents=1;fillColor=strokeColor;verticalLabelPosition=bottom;shadow=0;dashed=0;align=center;html=1;verticalAlign=top;shape=mxgraph.electrical.diodes.diode;" parent="1" vertex="1">
          <mxGeometry x="411.66" y="162" width="46.67" height="28" as="geometry" />
        </mxCell>
        <mxCell id="rBF4yyr9d5BcuPXfIOt9-164" value="" style="group" parent="1" vertex="1" connectable="0">
          <mxGeometry x="520" y="-80" width="150" height="160" as="geometry" />
        </mxCell>
        <mxCell id="rBF4yyr9d5BcuPXfIOt9-144" value="&lt;b&gt;Keypad&lt;/b&gt;" style="rounded=0;whiteSpace=wrap;html=1;verticalAlign=top;" parent="rBF4yyr9d5BcuPXfIOt9-164" vertex="1">
          <mxGeometry width="150" height="160" as="geometry" />
        </mxCell>
        <mxCell id="rBF4yyr9d5BcuPXfIOt9-126" value="" style="image;points=[];aspect=fixed;html=1;align=center;shadow=0;dashed=0;image=img/lib/allied_telesis/computer_and_terminals/Keypad.svg;" parent="rBF4yyr9d5BcuPXfIOt9-164" vertex="1">
          <mxGeometry x="42.55000000000007" y="31" width="64.9" height="118" as="geometry" />
        </mxCell>
        <mxCell id="rBF4yyr9d5BcuPXfIOt9-171" value="" style="group" parent="1" vertex="1" connectable="0">
          <mxGeometry x="95" y="-70" width="90" height="140" as="geometry" />
        </mxCell>
        <mxCell id="rBF4yyr9d5BcuPXfIOt9-64" value="&lt;b&gt;Top&lt;/b&gt;&lt;div&gt;&lt;b&gt;Lamps&lt;/b&gt;&lt;/div&gt;" style="rounded=0;whiteSpace=wrap;html=1;container=0;verticalAlign=top;" parent="rBF4yyr9d5BcuPXfIOt9-171" vertex="1">
          <mxGeometry width="90" height="140" as="geometry" />
        </mxCell>
        <mxCell id="rBF4yyr9d5BcuPXfIOt9-170" value="" style="group" parent="rBF4yyr9d5BcuPXfIOt9-171" vertex="1" connectable="0">
          <mxGeometry x="20" y="43.75" width="50" height="87.5" as="geometry" />
        </mxCell>
        <mxCell id="rBF4yyr9d5BcuPXfIOt9-56" value="" style="verticalLabelPosition=bottom;shadow=0;dashed=0;align=center;html=1;verticalAlign=top;shape=mxgraph.electrical.opto_electronics.lamp;container=0;" parent="rBF4yyr9d5BcuPXfIOt9-170" vertex="1">
          <mxGeometry width="50" height="87.5" as="geometry" />
        </mxCell>
        <mxCell id="rBF4yyr9d5BcuPXfIOt9-165" value="&lt;font style=&quot;&quot;&gt;12V&lt;/font&gt;" style="text;html=1;align=center;verticalAlign=middle;resizable=0;points=[];autosize=1;strokeColor=none;fillColor=none;fontColor=#999999;" parent="rBF4yyr9d5BcuPXfIOt9-170" vertex="1">
          <mxGeometry x="5" y="5.25" width="40" height="30" as="geometry" />
        </mxCell>
        <mxCell id="rBF4yyr9d5BcuPXfIOt9-172" value="" style="group" parent="1" vertex="1" connectable="0">
          <mxGeometry x="195" y="-70" width="90" height="140" as="geometry" />
        </mxCell>
        <mxCell id="rBF4yyr9d5BcuPXfIOt9-67" value="&lt;b&gt;Left &amp;amp; Right&lt;br&gt;Lamps&lt;/b&gt;" style="rounded=0;whiteSpace=wrap;html=1;container=0;verticalAlign=top;" parent="rBF4yyr9d5BcuPXfIOt9-172" vertex="1">
          <mxGeometry width="90" height="140" as="geometry" />
        </mxCell>
        <mxCell id="rBF4yyr9d5BcuPXfIOt9-169" value="" style="group" parent="rBF4yyr9d5BcuPXfIOt9-172" vertex="1" connectable="0">
          <mxGeometry x="20" y="43.75" width="50" height="87.5" as="geometry" />
        </mxCell>
        <mxCell id="rBF4yyr9d5BcuPXfIOt9-68" value="" style="verticalLabelPosition=bottom;shadow=0;dashed=0;align=center;html=1;verticalAlign=top;shape=mxgraph.electrical.opto_electronics.lamp;container=0;" parent="rBF4yyr9d5BcuPXfIOt9-169" vertex="1">
          <mxGeometry width="50" height="87.5" as="geometry" />
        </mxCell>
        <mxCell id="rBF4yyr9d5BcuPXfIOt9-166" value="&lt;font style=&quot;&quot;&gt;12V&lt;/font&gt;" style="text;html=1;align=center;verticalAlign=middle;resizable=0;points=[];autosize=1;strokeColor=none;fillColor=none;fontColor=#999999;" parent="rBF4yyr9d5BcuPXfIOt9-169" vertex="1">
          <mxGeometry x="5.009999999999991" y="5.25" width="40" height="30" as="geometry" />
        </mxCell>
        <mxCell id="rBF4yyr9d5BcuPXfIOt9-173" value="" style="group" parent="1" vertex="1" connectable="0">
          <mxGeometry x="295" y="-70" width="90" height="140" as="geometry" />
        </mxCell>
        <mxCell id="rBF4yyr9d5BcuPXfIOt9-70" value="&lt;b&gt;Bottom&lt;br&gt;Lamps&lt;/b&gt;" style="rounded=0;whiteSpace=wrap;html=1;container=0;verticalAlign=top;" parent="rBF4yyr9d5BcuPXfIOt9-173" vertex="1">
          <mxGeometry width="90" height="140" as="geometry" />
        </mxCell>
        <mxCell id="rBF4yyr9d5BcuPXfIOt9-168" value="" style="group" parent="rBF4yyr9d5BcuPXfIOt9-173" vertex="1" connectable="0">
          <mxGeometry x="20" y="43.75" width="50" height="87.5" as="geometry" />
        </mxCell>
        <mxCell id="rBF4yyr9d5BcuPXfIOt9-71" value="" style="verticalLabelPosition=bottom;shadow=0;dashed=0;align=center;html=1;verticalAlign=top;shape=mxgraph.electrical.opto_electronics.lamp;container=0;" parent="rBF4yyr9d5BcuPXfIOt9-168" vertex="1">
          <mxGeometry width="50" height="87.5" as="geometry" />
        </mxCell>
        <mxCell id="rBF4yyr9d5BcuPXfIOt9-167" value="&lt;font style=&quot;&quot;&gt;12V&lt;/font&gt;" style="text;html=1;align=center;verticalAlign=middle;resizable=0;points=[];autosize=1;strokeColor=none;fillColor=none;fontColor=#999999;" parent="rBF4yyr9d5BcuPXfIOt9-168" vertex="1">
          <mxGeometry x="5" y="5.25" width="40" height="30" as="geometry" />
        </mxCell>
        <mxCell id="oHiBlrB8i4LJVa20t2zO-1" value="" style="verticalLabelPosition=bottom;shadow=0;dashed=0;align=center;html=1;verticalAlign=top;shape=mxgraph.electrical.mosfets1.p-channel_mosfet_1;" parent="1" vertex="1">
          <mxGeometry x="223.85" y="146" width="32.3" height="34" as="geometry" />
        </mxCell>
        <mxCell id="ZUvFtijzCxltbm-wW6fE-4" value="" style="group" vertex="1" connectable="0" parent="1">
          <mxGeometry x="380" y="600" width="80" height="80" as="geometry" />
        </mxCell>
        <mxCell id="rBF4yyr9d5BcuPXfIOt9-31" value="&lt;b&gt;Low - Low&lt;/b&gt;" style="whiteSpace=wrap;html=1;aspect=fixed;container=0;verticalAlign=top;" parent="ZUvFtijzCxltbm-wW6fE-4" vertex="1">
          <mxGeometry width="80" height="80" as="geometry" />
        </mxCell>
        <mxCell id="rBF4yyr9d5BcuPXfIOt9-29" value="" style="pointerEvents=1;verticalLabelPosition=bottom;shadow=0;dashed=0;align=center;html=1;verticalAlign=top;shape=mxgraph.electrical.electro-mechanical.loudspeaker;container=0;" parent="ZUvFtijzCxltbm-wW6fE-4" vertex="1">
          <mxGeometry x="22.5" y="30" width="27.5" height="30" as="geometry" />
        </mxCell>
        <mxCell id="ZUvFtijzCxltbm-wW6fE-5" value="" style="group" vertex="1" connectable="0" parent="1">
          <mxGeometry x="460" y="600" width="80" height="80" as="geometry" />
        </mxCell>
        <mxCell id="ZUvFtijzCxltbm-wW6fE-6" value="&lt;b&gt;Mid - Low&lt;/b&gt;" style="whiteSpace=wrap;html=1;aspect=fixed;container=0;verticalAlign=top;" vertex="1" parent="ZUvFtijzCxltbm-wW6fE-5">
          <mxGeometry width="80" height="80" as="geometry" />
        </mxCell>
        <mxCell id="ZUvFtijzCxltbm-wW6fE-7" value="" style="pointerEvents=1;verticalLabelPosition=bottom;shadow=0;dashed=0;align=center;html=1;verticalAlign=top;shape=mxgraph.electrical.electro-mechanical.loudspeaker;container=0;" vertex="1" parent="ZUvFtijzCxltbm-wW6fE-5">
          <mxGeometry x="22.5" y="30" width="27.5" height="30" as="geometry" />
        </mxCell>
        <mxCell id="ZUvFtijzCxltbm-wW6fE-11" value="" style="group" vertex="1" connectable="0" parent="1">
          <mxGeometry x="580" y="600" width="80" height="80" as="geometry" />
        </mxCell>
        <mxCell id="ZUvFtijzCxltbm-wW6fE-12" value="&lt;b&gt;Mid - High&lt;/b&gt;" style="whiteSpace=wrap;html=1;aspect=fixed;container=0;verticalAlign=top;" vertex="1" parent="ZUvFtijzCxltbm-wW6fE-11">
          <mxGeometry width="80" height="80" as="geometry" />
        </mxCell>
        <mxCell id="ZUvFtijzCxltbm-wW6fE-13" value="" style="pointerEvents=1;verticalLabelPosition=bottom;shadow=0;dashed=0;align=center;html=1;verticalAlign=top;shape=mxgraph.electrical.electro-mechanical.loudspeaker;container=0;" vertex="1" parent="ZUvFtijzCxltbm-wW6fE-11">
          <mxGeometry x="22.5" y="30" width="27.5" height="30" as="geometry" />
        </mxCell>
        <mxCell id="ZUvFtijzCxltbm-wW6fE-14" value="" style="group" vertex="1" connectable="0" parent="1">
          <mxGeometry x="660" y="600" width="80" height="80" as="geometry" />
        </mxCell>
        <mxCell id="ZUvFtijzCxltbm-wW6fE-15" value="&lt;b&gt;High - High&lt;/b&gt;" style="whiteSpace=wrap;html=1;aspect=fixed;container=0;verticalAlign=top;" vertex="1" parent="ZUvFtijzCxltbm-wW6fE-14">
          <mxGeometry width="80" height="80" as="geometry" />
        </mxCell>
        <mxCell id="ZUvFtijzCxltbm-wW6fE-16" value="" style="pointerEvents=1;verticalLabelPosition=bottom;shadow=0;dashed=0;align=center;html=1;verticalAlign=top;shape=mxgraph.electrical.electro-mechanical.loudspeaker;container=0;" vertex="1" parent="ZUvFtijzCxltbm-wW6fE-14">
          <mxGeometry x="22.5" y="30" width="27.5" height="30" as="geometry" />
        </mxCell>
      </root>
    </mxGraphModel>
  </diagram>
</mxfile>
